solid ASCII
  facet normal -5.000000e-01 0.000000e+00 -8.660254e-01
    outer loop
      vertex   1.420000e+01 0.000000e+00 3.242487e+01
      vertex   1.000000e+01 0.000000e+00 3.484974e+01
      vertex   1.420000e+01 5.000000e+00 3.242487e+01
    endloop
  endfacet
  facet normal -5.000000e-01 0.000000e+00 -8.660254e-01
    outer loop
      vertex   1.420000e+01 5.000000e+00 3.242487e+01
      vertex   1.000000e+01 0.000000e+00 3.484974e+01
      vertex   1.000000e+01 5.000000e+00 3.484974e+01
    endloop
  endfacet
  facet normal 5.000000e-01 0.000000e+00 -8.660254e-01
    outer loop
      vertex   1.000000e+01 0.000000e+00 3.484974e+01
      vertex   5.800000e+00 0.000000e+00 3.242487e+01
      vertex   1.000000e+01 5.000000e+00 3.484974e+01
    endloop
  endfacet
  facet normal 5.000000e-01 0.000000e+00 -8.660254e-01
    outer loop
      vertex   1.000000e+01 5.000000e+00 3.484974e+01
      vertex   5.800000e+00 0.000000e+00 3.242487e+01
      vertex   5.800000e+00 5.000000e+00 3.242487e+01
    endloop
  endfacet
  facet normal 1.000000e+00 0.000000e+00 -1.098836e-15
    outer loop
      vertex   5.800000e+00 0.000000e+00 3.242487e+01
      vertex   5.800000e+00 0.000000e+00 2.757513e+01
      vertex   5.800000e+00 5.000000e+00 3.242487e+01
    endloop
  endfacet
  facet normal 1.000000e+00 0.000000e+00 -1.098836e-15
    outer loop
      vertex   5.800000e+00 5.000000e+00 3.242487e+01
      vertex   5.800000e+00 0.000000e+00 2.757513e+01
      vertex   5.800000e+00 5.000000e+00 2.757513e+01
    endloop
  endfacet
  facet normal 5.000000e-01 -0.000000e+00 8.660254e-01
    outer loop
      vertex   5.800000e+00 0.000000e+00 2.757513e+01
      vertex   1.000000e+01 0.000000e+00 2.515026e+01
      vertex   5.800000e+00 5.000000e+00 2.757513e+01
    endloop
  endfacet
  facet normal 5.000000e-01 0.000000e+00 8.660254e-01
    outer loop
      vertex   5.800000e+00 5.000000e+00 2.757513e+01
      vertex   1.000000e+01 0.000000e+00 2.515026e+01
      vertex   1.000000e+01 5.000000e+00 2.515026e+01
    endloop
  endfacet
  facet normal -5.000000e-01 0.000000e+00 8.660254e-01
    outer loop
      vertex   1.000000e+01 0.000000e+00 2.515026e+01
      vertex   1.420000e+01 0.000000e+00 2.757513e+01
      vertex   1.000000e+01 5.000000e+00 2.515026e+01
    endloop
  endfacet
  facet normal -5.000000e-01 0.000000e+00 8.660254e-01
    outer loop
      vertex   1.000000e+01 5.000000e+00 2.515026e+01
      vertex   1.420000e+01 0.000000e+00 2.757513e+01
      vertex   1.420000e+01 5.000000e+00 2.757513e+01
    endloop
  endfacet
  facet normal -1.000000e+00 0.000000e+00 7.325572e-16
    outer loop
      vertex   1.420000e+01 0.000000e+00 2.757513e+01
      vertex   1.420000e+01 0.000000e+00 3.242487e+01
      vertex   1.420000e+01 5.000000e+00 2.757513e+01
    endloop
  endfacet
  facet normal -1.000000e+00 0.000000e+00 7.325572e-16
    outer loop
      vertex   1.420000e+01 5.000000e+00 2.757513e+01
      vertex   1.420000e+01 0.000000e+00 3.242487e+01
      vertex   1.420000e+01 5.000000e+00 3.242487e+01
    endloop
  endfacet
  facet normal -0.000000e+00 -1.000000e+00 0.000000e+00
    outer loop
      vertex   7.314294e+00 5.000000e+00 3.059117e+01
      vertex   5.800000e+00 5.000000e+00 3.242487e+01
      vertex   7.250000e+00 5.000000e+00 3.000000e+01
    endloop
  endfacet
  facet normal -0.000000e+00 -1.000000e+00 0.000000e+00
    outer loop
      vertex   7.250000e+00 5.000000e+00 3.000000e+01
      vertex   5.800000e+00 5.000000e+00 3.242487e+01
      vertex   5.800000e+00 5.000000e+00 2.757513e+01
    endloop
  endfacet
  facet normal 0.000000e+00 -1.000000e+00 -0.000000e+00
    outer loop
      vertex   7.250000e+00 5.000000e+00 3.000000e+01
      vertex   5.800000e+00 5.000000e+00 2.757513e+01
      vertex   7.314294e+00 5.000000e+00 2.940883e+01
    endloop
  endfacet
  facet normal 0.000000e+00 -1.000000e+00 -0.000000e+00
    outer loop
      vertex   7.314294e+00 5.000000e+00 2.940883e+01
      vertex   5.800000e+00 5.000000e+00 2.757513e+01
      vertex   7.504168e+00 5.000000e+00 2.884530e+01
    endloop
  endfacet
  facet normal 0.000000e+00 -1.000000e+00 -0.000000e+00
    outer loop
      vertex   7.504168e+00 5.000000e+00 2.884530e+01
      vertex   5.800000e+00 5.000000e+00 2.757513e+01
      vertex   7.810744e+00 5.000000e+00 2.833577e+01
    endloop
  endfacet
  facet normal 0.000000e+00 -1.000000e+00 -0.000000e+00
    outer loop
      vertex   7.810744e+00 5.000000e+00 2.833577e+01
      vertex   5.800000e+00 5.000000e+00 2.757513e+01
      vertex   8.219688e+00 5.000000e+00 2.790405e+01
    endloop
  endfacet
  facet normal 0.000000e+00 -1.000000e+00 -0.000000e+00
    outer loop
      vertex   8.219688e+00 5.000000e+00 2.790405e+01
      vertex   5.800000e+00 5.000000e+00 2.757513e+01
      vertex   8.711877e+00 5.000000e+00 2.757034e+01
    endloop
  endfacet
  facet normal -0.000000e+00 -1.000000e+00 -0.000000e+00
    outer loop
      vertex   8.711877e+00 5.000000e+00 2.757034e+01
      vertex   5.800000e+00 5.000000e+00 2.757513e+01
      vertex   1.000000e+01 5.000000e+00 2.515026e+01
    endloop
  endfacet
  facet normal 0.000000e+00 -1.000000e+00 0.000000e+00
    outer loop
      vertex   8.711877e+00 5.000000e+00 2.757034e+01
      vertex   1.000000e+01 5.000000e+00 2.515026e+01
      vertex   9.264297e+00 5.000000e+00 2.735024e+01
    endloop
  endfacet
  facet normal 0.000000e+00 -1.000000e+00 0.000000e+00
    outer loop
      vertex   9.264297e+00 5.000000e+00 2.735024e+01
      vertex   1.000000e+01 5.000000e+00 2.515026e+01
      vertex   9.851118e+00 5.000000e+00 2.725403e+01
    endloop
  endfacet
  facet normal 0.000000e+00 -1.000000e+00 0.000000e+00
    outer loop
      vertex   9.851118e+00 5.000000e+00 2.725403e+01
      vertex   1.000000e+01 5.000000e+00 2.515026e+01
      vertex   1.044490e+01 5.000000e+00 2.728623e+01
    endloop
  endfacet
  facet normal 0.000000e+00 -1.000000e+00 -0.000000e+00
    outer loop
      vertex   1.044490e+01 5.000000e+00 2.728623e+01
      vertex   1.000000e+01 5.000000e+00 2.515026e+01
      vertex   1.101788e+01 5.000000e+00 2.744531e+01
    endloop
  endfacet
  facet normal 0.000000e+00 -1.000000e+00 -0.000000e+00
    outer loop
      vertex   1.101788e+01 5.000000e+00 2.744531e+01
      vertex   1.000000e+01 5.000000e+00 2.515026e+01
      vertex   1.154326e+01 5.000000e+00 2.772386e+01
    endloop
  endfacet
  facet normal 0.000000e+00 -1.000000e+00 -0.000000e+00
    outer loop
      vertex   1.154326e+01 5.000000e+00 2.772386e+01
      vertex   1.000000e+01 5.000000e+00 2.515026e+01
      vertex   1.420000e+01 5.000000e+00 2.757513e+01
    endloop
  endfacet
  facet normal 0.000000e+00 -1.000000e+00 0.000000e+00
    outer loop
      vertex   1.154326e+01 5.000000e+00 2.772386e+01
      vertex   1.420000e+01 5.000000e+00 2.757513e+01
      vertex   1.199649e+01 5.000000e+00 2.810883e+01
    endloop
  endfacet
  facet normal 0.000000e+00 -1.000000e+00 0.000000e+00
    outer loop
      vertex   1.199649e+01 5.000000e+00 2.810883e+01
      vertex   1.420000e+01 5.000000e+00 2.757513e+01
      vertex   1.235636e+01 5.000000e+00 2.858223e+01
    endloop
  endfacet
  facet normal 0.000000e+00 -1.000000e+00 0.000000e+00
    outer loop
      vertex   1.235636e+01 5.000000e+00 2.858223e+01
      vertex   1.420000e+01 5.000000e+00 2.757513e+01
      vertex   1.260605e+01 5.000000e+00 2.912192e+01
    endloop
  endfacet
  facet normal 0.000000e+00 -1.000000e+00 0.000000e+00
    outer loop
      vertex   1.260605e+01 5.000000e+00 2.912192e+01
      vertex   1.420000e+01 5.000000e+00 2.757513e+01
      vertex   1.273388e+01 5.000000e+00 2.970267e+01
    endloop
  endfacet
  facet normal 0.000000e+00 -1.000000e+00 0.000000e+00
    outer loop
      vertex   1.273388e+01 5.000000e+00 2.970267e+01
      vertex   1.420000e+01 5.000000e+00 2.757513e+01
      vertex   1.273388e+01 5.000000e+00 3.029733e+01
    endloop
  endfacet
  facet normal 0.000000e+00 -1.000000e+00 0.000000e+00
    outer loop
      vertex   1.273388e+01 5.000000e+00 3.029733e+01
      vertex   1.420000e+01 5.000000e+00 2.757513e+01
      vertex   1.420000e+01 5.000000e+00 3.242487e+01
    endloop
  endfacet
  facet normal 0.000000e+00 -1.000000e+00 0.000000e+00
    outer loop
      vertex   1.273388e+01 5.000000e+00 3.029733e+01
      vertex   1.420000e+01 5.000000e+00 3.242487e+01
      vertex   1.260605e+01 5.000000e+00 3.087808e+01
    endloop
  endfacet
  facet normal 0.000000e+00 -1.000000e+00 0.000000e+00
    outer loop
      vertex   1.260605e+01 5.000000e+00 3.087808e+01
      vertex   1.420000e+01 5.000000e+00 3.242487e+01
      vertex   1.235636e+01 5.000000e+00 3.141777e+01
    endloop
  endfacet
  facet normal 0.000000e+00 -1.000000e+00 0.000000e+00
    outer loop
      vertex   1.235636e+01 5.000000e+00 3.141777e+01
      vertex   1.420000e+01 5.000000e+00 3.242487e+01
      vertex   1.199649e+01 5.000000e+00 3.189117e+01
    endloop
  endfacet
  facet normal 0.000000e+00 -1.000000e+00 0.000000e+00
    outer loop
      vertex   1.199649e+01 5.000000e+00 3.189117e+01
      vertex   1.420000e+01 5.000000e+00 3.242487e+01
      vertex   1.154326e+01 5.000000e+00 3.227614e+01
    endloop
  endfacet
  facet normal 0.000000e+00 -1.000000e+00 0.000000e+00
    outer loop
      vertex   1.154326e+01 5.000000e+00 3.227614e+01
      vertex   1.420000e+01 5.000000e+00 3.242487e+01
      vertex   1.000000e+01 5.000000e+00 3.484974e+01
    endloop
  endfacet
  facet normal 0.000000e+00 -1.000000e+00 0.000000e+00
    outer loop
      vertex   1.154326e+01 5.000000e+00 3.227614e+01
      vertex   1.000000e+01 5.000000e+00 3.484974e+01
      vertex   1.101788e+01 5.000000e+00 3.255469e+01
    endloop
  endfacet
  facet normal 0.000000e+00 -1.000000e+00 0.000000e+00
    outer loop
      vertex   1.101788e+01 5.000000e+00 3.255469e+01
      vertex   1.000000e+01 5.000000e+00 3.484974e+01
      vertex   1.044490e+01 5.000000e+00 3.271377e+01
    endloop
  endfacet
  facet normal 0.000000e+00 -1.000000e+00 0.000000e+00
    outer loop
      vertex   1.044490e+01 5.000000e+00 3.271377e+01
      vertex   1.000000e+01 5.000000e+00 3.484974e+01
      vertex   9.851118e+00 5.000000e+00 3.274597e+01
    endloop
  endfacet
  facet normal -0.000000e+00 -1.000000e+00 0.000000e+00
    outer loop
      vertex   9.851118e+00 5.000000e+00 3.274597e+01
      vertex   1.000000e+01 5.000000e+00 3.484974e+01
      vertex   9.264297e+00 5.000000e+00 3.264976e+01
    endloop
  endfacet
  facet normal -0.000000e+00 -1.000000e+00 0.000000e+00
    outer loop
      vertex   9.264297e+00 5.000000e+00 3.264976e+01
      vertex   1.000000e+01 5.000000e+00 3.484974e+01
      vertex   8.711877e+00 5.000000e+00 3.242966e+01
    endloop
  endfacet
  facet normal -0.000000e+00 -1.000000e+00 0.000000e+00
    outer loop
      vertex   8.711877e+00 5.000000e+00 3.242966e+01
      vertex   1.000000e+01 5.000000e+00 3.484974e+01
      vertex   5.800000e+00 5.000000e+00 3.242487e+01
    endloop
  endfacet
  facet normal 0.000000e+00 -1.000000e+00 0.000000e+00
    outer loop
      vertex   8.711877e+00 5.000000e+00 3.242966e+01
      vertex   5.800000e+00 5.000000e+00 3.242487e+01
      vertex   8.219688e+00 5.000000e+00 3.209595e+01
    endloop
  endfacet
  facet normal -0.000000e+00 -1.000000e+00 0.000000e+00
    outer loop
      vertex   8.219688e+00 5.000000e+00 3.209595e+01
      vertex   5.800000e+00 5.000000e+00 3.242487e+01
      vertex   7.810744e+00 5.000000e+00 3.166423e+01
    endloop
  endfacet
  facet normal -0.000000e+00 -1.000000e+00 0.000000e+00
    outer loop
      vertex   7.810744e+00 5.000000e+00 3.166423e+01
      vertex   5.800000e+00 5.000000e+00 3.242487e+01
      vertex   7.504168e+00 5.000000e+00 3.115470e+01
    endloop
  endfacet
  facet normal -0.000000e+00 -1.000000e+00 0.000000e+00
    outer loop
      vertex   7.504168e+00 5.000000e+00 3.115470e+01
      vertex   5.800000e+00 5.000000e+00 3.242487e+01
      vertex   7.314294e+00 5.000000e+00 3.059117e+01
    endloop
  endfacet
  facet normal -5.000000e-01 0.000000e+00 -8.660254e-01
    outer loop
      vertex   1.420000e+01 0.000000e+00 1.242487e+01
      vertex   1.000000e+01 0.000000e+00 1.484974e+01
      vertex   1.420000e+01 5.000000e+00 1.242487e+01
    endloop
  endfacet
  facet normal -5.000000e-01 0.000000e+00 -8.660254e-01
    outer loop
      vertex   1.420000e+01 5.000000e+00 1.242487e+01
      vertex   1.000000e+01 0.000000e+00 1.484974e+01
      vertex   1.000000e+01 5.000000e+00 1.484974e+01
    endloop
  endfacet
  facet normal 5.000000e-01 0.000000e+00 -8.660254e-01
    outer loop
      vertex   1.000000e+01 0.000000e+00 1.484974e+01
      vertex   5.800000e+00 0.000000e+00 1.242487e+01
      vertex   1.000000e+01 5.000000e+00 1.484974e+01
    endloop
  endfacet
  facet normal 5.000000e-01 0.000000e+00 -8.660254e-01
    outer loop
      vertex   1.000000e+01 5.000000e+00 1.484974e+01
      vertex   5.800000e+00 0.000000e+00 1.242487e+01
      vertex   5.800000e+00 5.000000e+00 1.242487e+01
    endloop
  endfacet
  facet normal 1.000000e+00 0.000000e+00 -7.325572e-16
    outer loop
      vertex   5.800000e+00 0.000000e+00 1.242487e+01
      vertex   5.800000e+00 0.000000e+00 7.575129e+00
      vertex   5.800000e+00 5.000000e+00 1.242487e+01
    endloop
  endfacet
  facet normal 1.000000e+00 0.000000e+00 -7.325572e-16
    outer loop
      vertex   5.800000e+00 5.000000e+00 1.242487e+01
      vertex   5.800000e+00 0.000000e+00 7.575129e+00
      vertex   5.800000e+00 5.000000e+00 7.575129e+00
    endloop
  endfacet
  facet normal 5.000000e-01 -0.000000e+00 8.660254e-01
    outer loop
      vertex   5.800000e+00 0.000000e+00 7.575129e+00
      vertex   1.000000e+01 0.000000e+00 5.150258e+00
      vertex   5.800000e+00 5.000000e+00 7.575129e+00
    endloop
  endfacet
  facet normal 5.000000e-01 0.000000e+00 8.660254e-01
    outer loop
      vertex   5.800000e+00 5.000000e+00 7.575129e+00
      vertex   1.000000e+01 0.000000e+00 5.150258e+00
      vertex   1.000000e+01 5.000000e+00 5.150258e+00
    endloop
  endfacet
  facet normal -5.000000e-01 0.000000e+00 8.660254e-01
    outer loop
      vertex   1.000000e+01 0.000000e+00 5.150258e+00
      vertex   1.420000e+01 0.000000e+00 7.575129e+00
      vertex   1.000000e+01 5.000000e+00 5.150258e+00
    endloop
  endfacet
  facet normal -5.000000e-01 0.000000e+00 8.660254e-01
    outer loop
      vertex   1.000000e+01 5.000000e+00 5.150258e+00
      vertex   1.420000e+01 0.000000e+00 7.575129e+00
      vertex   1.420000e+01 5.000000e+00 7.575129e+00
    endloop
  endfacet
  facet normal -1.000000e+00 0.000000e+00 3.662786e-16
    outer loop
      vertex   1.420000e+01 0.000000e+00 7.575129e+00
      vertex   1.420000e+01 0.000000e+00 1.242487e+01
      vertex   1.420000e+01 5.000000e+00 7.575129e+00
    endloop
  endfacet
  facet normal -1.000000e+00 0.000000e+00 3.662786e-16
    outer loop
      vertex   1.420000e+01 5.000000e+00 7.575129e+00
      vertex   1.420000e+01 0.000000e+00 1.242487e+01
      vertex   1.420000e+01 5.000000e+00 1.242487e+01
    endloop
  endfacet
  facet normal -0.000000e+00 -1.000000e+00 0.000000e+00
    outer loop
      vertex   7.314293e+00 5.000000e+00 1.059117e+01
      vertex   5.800000e+00 5.000000e+00 1.242487e+01
      vertex   7.250000e+00 5.000000e+00 1.000000e+01
    endloop
  endfacet
  facet normal -0.000000e+00 -1.000000e+00 0.000000e+00
    outer loop
      vertex   7.250000e+00 5.000000e+00 1.000000e+01
      vertex   5.800000e+00 5.000000e+00 1.242487e+01
      vertex   5.800000e+00 5.000000e+00 7.575129e+00
    endloop
  endfacet
  facet normal 0.000000e+00 -1.000000e+00 -0.000000e+00
    outer loop
      vertex   7.250000e+00 5.000000e+00 1.000000e+01
      vertex   5.800000e+00 5.000000e+00 7.575129e+00
      vertex   7.314293e+00 5.000000e+00 9.408831e+00
    endloop
  endfacet
  facet normal 0.000000e+00 -1.000000e+00 -0.000000e+00
    outer loop
      vertex   7.314293e+00 5.000000e+00 9.408831e+00
      vertex   5.800000e+00 5.000000e+00 7.575129e+00
      vertex   7.504168e+00 5.000000e+00 8.845305e+00
    endloop
  endfacet
  facet normal 0.000000e+00 -1.000000e+00 -0.000000e+00
    outer loop
      vertex   7.504168e+00 5.000000e+00 8.845305e+00
      vertex   5.800000e+00 5.000000e+00 7.575129e+00
      vertex   7.810744e+00 5.000000e+00 8.335771e+00
    endloop
  endfacet
  facet normal 0.000000e+00 -1.000000e+00 -0.000000e+00
    outer loop
      vertex   7.810744e+00 5.000000e+00 8.335771e+00
      vertex   5.800000e+00 5.000000e+00 7.575129e+00
      vertex   8.219688e+00 5.000000e+00 7.904054e+00
    endloop
  endfacet
  facet normal 0.000000e+00 -1.000000e+00 -0.000000e+00
    outer loop
      vertex   8.219688e+00 5.000000e+00 7.904054e+00
      vertex   5.800000e+00 5.000000e+00 7.575129e+00
      vertex   8.711877e+00 5.000000e+00 7.570342e+00
    endloop
  endfacet
  facet normal -0.000000e+00 -1.000000e+00 -0.000000e+00
    outer loop
      vertex   8.711877e+00 5.000000e+00 7.570342e+00
      vertex   5.800000e+00 5.000000e+00 7.575129e+00
      vertex   1.000000e+01 5.000000e+00 5.150258e+00
    endloop
  endfacet
  facet normal 0.000000e+00 -1.000000e+00 0.000000e+00
    outer loop
      vertex   8.711877e+00 5.000000e+00 7.570342e+00
      vertex   1.000000e+01 5.000000e+00 5.150258e+00
      vertex   9.264297e+00 5.000000e+00 7.350238e+00
    endloop
  endfacet
  facet normal 0.000000e+00 -1.000000e+00 0.000000e+00
    outer loop
      vertex   9.264297e+00 5.000000e+00 7.350238e+00
      vertex   1.000000e+01 5.000000e+00 5.150258e+00
      vertex   9.851118e+00 5.000000e+00 7.254033e+00
    endloop
  endfacet
  facet normal 0.000000e+00 -1.000000e+00 0.000000e+00
    outer loop
      vertex   9.851118e+00 5.000000e+00 7.254033e+00
      vertex   1.000000e+01 5.000000e+00 5.150258e+00
      vertex   1.044490e+01 5.000000e+00 7.286227e+00
    endloop
  endfacet
  facet normal 0.000000e+00 -1.000000e+00 -0.000000e+00
    outer loop
      vertex   1.044490e+01 5.000000e+00 7.286227e+00
      vertex   1.000000e+01 5.000000e+00 5.150258e+00
      vertex   1.101788e+01 5.000000e+00 7.445314e+00
    endloop
  endfacet
  facet normal 0.000000e+00 -1.000000e+00 -0.000000e+00
    outer loop
      vertex   1.101788e+01 5.000000e+00 7.445314e+00
      vertex   1.000000e+01 5.000000e+00 5.150258e+00
      vertex   1.154326e+01 5.000000e+00 7.723855e+00
    endloop
  endfacet
  facet normal 0.000000e+00 -1.000000e+00 -0.000000e+00
    outer loop
      vertex   1.154326e+01 5.000000e+00 7.723855e+00
      vertex   1.000000e+01 5.000000e+00 5.150258e+00
      vertex   1.420000e+01 5.000000e+00 7.575129e+00
    endloop
  endfacet
  facet normal 0.000000e+00 -1.000000e+00 0.000000e+00
    outer loop
      vertex   1.154326e+01 5.000000e+00 7.723855e+00
      vertex   1.420000e+01 5.000000e+00 7.575129e+00
      vertex   1.199649e+01 5.000000e+00 8.108826e+00
    endloop
  endfacet
  facet normal 0.000000e+00 -1.000000e+00 0.000000e+00
    outer loop
      vertex   1.199649e+01 5.000000e+00 8.108826e+00
      vertex   1.420000e+01 5.000000e+00 7.575129e+00
      vertex   1.235636e+01 5.000000e+00 8.582227e+00
    endloop
  endfacet
  facet normal 0.000000e+00 -1.000000e+00 0.000000e+00
    outer loop
      vertex   1.235636e+01 5.000000e+00 8.582227e+00
      vertex   1.420000e+01 5.000000e+00 7.575129e+00
      vertex   1.260605e+01 5.000000e+00 9.121921e+00
    endloop
  endfacet
  facet normal 0.000000e+00 -1.000000e+00 0.000000e+00
    outer loop
      vertex   1.260605e+01 5.000000e+00 9.121921e+00
      vertex   1.420000e+01 5.000000e+00 7.575129e+00
      vertex   1.273388e+01 5.000000e+00 9.702673e+00
    endloop
  endfacet
  facet normal 0.000000e+00 -1.000000e+00 0.000000e+00
    outer loop
      vertex   1.273388e+01 5.000000e+00 9.702673e+00
      vertex   1.420000e+01 5.000000e+00 7.575129e+00
      vertex   1.273388e+01 5.000000e+00 1.029733e+01
    endloop
  endfacet
  facet normal 0.000000e+00 -1.000000e+00 0.000000e+00
    outer loop
      vertex   1.273388e+01 5.000000e+00 1.029733e+01
      vertex   1.420000e+01 5.000000e+00 7.575129e+00
      vertex   1.420000e+01 5.000000e+00 1.242487e+01
    endloop
  endfacet
  facet normal 0.000000e+00 -1.000000e+00 0.000000e+00
    outer loop
      vertex   1.273388e+01 5.000000e+00 1.029733e+01
      vertex   1.420000e+01 5.000000e+00 1.242487e+01
      vertex   1.260605e+01 5.000000e+00 1.087808e+01
    endloop
  endfacet
  facet normal 0.000000e+00 -1.000000e+00 0.000000e+00
    outer loop
      vertex   1.260605e+01 5.000000e+00 1.087808e+01
      vertex   1.420000e+01 5.000000e+00 1.242487e+01
      vertex   1.235636e+01 5.000000e+00 1.141777e+01
    endloop
  endfacet
  facet normal 0.000000e+00 -1.000000e+00 0.000000e+00
    outer loop
      vertex   1.235636e+01 5.000000e+00 1.141777e+01
      vertex   1.420000e+01 5.000000e+00 1.242487e+01
      vertex   1.199649e+01 5.000000e+00 1.189117e+01
    endloop
  endfacet
  facet normal 0.000000e+00 -1.000000e+00 0.000000e+00
    outer loop
      vertex   1.199649e+01 5.000000e+00 1.189117e+01
      vertex   1.420000e+01 5.000000e+00 1.242487e+01
      vertex   1.154326e+01 5.000000e+00 1.227614e+01
    endloop
  endfacet
  facet normal 0.000000e+00 -1.000000e+00 0.000000e+00
    outer loop
      vertex   1.154326e+01 5.000000e+00 1.227614e+01
      vertex   1.420000e+01 5.000000e+00 1.242487e+01
      vertex   1.000000e+01 5.000000e+00 1.484974e+01
    endloop
  endfacet
  facet normal 0.000000e+00 -1.000000e+00 0.000000e+00
    outer loop
      vertex   1.154326e+01 5.000000e+00 1.227614e+01
      vertex   1.000000e+01 5.000000e+00 1.484974e+01
      vertex   1.101788e+01 5.000000e+00 1.255469e+01
    endloop
  endfacet
  facet normal 0.000000e+00 -1.000000e+00 0.000000e+00
    outer loop
      vertex   1.101788e+01 5.000000e+00 1.255469e+01
      vertex   1.000000e+01 5.000000e+00 1.484974e+01
      vertex   1.044490e+01 5.000000e+00 1.271377e+01
    endloop
  endfacet
  facet normal 0.000000e+00 -1.000000e+00 0.000000e+00
    outer loop
      vertex   1.044490e+01 5.000000e+00 1.271377e+01
      vertex   1.000000e+01 5.000000e+00 1.484974e+01
      vertex   9.851118e+00 5.000000e+00 1.274597e+01
    endloop
  endfacet
  facet normal -0.000000e+00 -1.000000e+00 0.000000e+00
    outer loop
      vertex   9.851118e+00 5.000000e+00 1.274597e+01
      vertex   1.000000e+01 5.000000e+00 1.484974e+01
      vertex   9.264297e+00 5.000000e+00 1.264976e+01
    endloop
  endfacet
  facet normal -0.000000e+00 -1.000000e+00 0.000000e+00
    outer loop
      vertex   9.264297e+00 5.000000e+00 1.264976e+01
      vertex   1.000000e+01 5.000000e+00 1.484974e+01
      vertex   8.711877e+00 5.000000e+00 1.242966e+01
    endloop
  endfacet
  facet normal -0.000000e+00 -1.000000e+00 0.000000e+00
    outer loop
      vertex   8.711877e+00 5.000000e+00 1.242966e+01
      vertex   1.000000e+01 5.000000e+00 1.484974e+01
      vertex   5.800000e+00 5.000000e+00 1.242487e+01
    endloop
  endfacet
  facet normal 0.000000e+00 -1.000000e+00 0.000000e+00
    outer loop
      vertex   8.711877e+00 5.000000e+00 1.242966e+01
      vertex   5.800000e+00 5.000000e+00 1.242487e+01
      vertex   8.219688e+00 5.000000e+00 1.209595e+01
    endloop
  endfacet
  facet normal -0.000000e+00 -1.000000e+00 0.000000e+00
    outer loop
      vertex   8.219688e+00 5.000000e+00 1.209595e+01
      vertex   5.800000e+00 5.000000e+00 1.242487e+01
      vertex   7.810744e+00 5.000000e+00 1.166423e+01
    endloop
  endfacet
  facet normal -0.000000e+00 -1.000000e+00 0.000000e+00
    outer loop
      vertex   7.810744e+00 5.000000e+00 1.166423e+01
      vertex   5.800000e+00 5.000000e+00 1.242487e+01
      vertex   7.504168e+00 5.000000e+00 1.115470e+01
    endloop
  endfacet
  facet normal -0.000000e+00 -1.000000e+00 0.000000e+00
    outer loop
      vertex   7.504168e+00 5.000000e+00 1.115470e+01
      vertex   5.800000e+00 5.000000e+00 1.242487e+01
      vertex   7.314293e+00 5.000000e+00 1.059117e+01
    endloop
  endfacet
  facet normal 9.941057e-01 8.060047e-03 1.081155e-01
    outer loop
      vertex   7.314294e+00 5.000000e+00 2.940883e+01
      vertex   7.266121e+00 7.000000e+00 2.970267e+01
      vertex   7.250000e+00 5.000000e+00 3.000000e+01
    endloop
  endfacet
  facet normal 9.999675e-01 -8.060047e-03 0.000000e+00
    outer loop
      vertex   7.250000e+00 5.000000e+00 3.000000e+01
      vertex   7.266121e+00 7.000000e+00 2.970267e+01
      vertex   7.266121e+00 7.000000e+00 3.029733e+01
    endloop
  endfacet
  facet normal 9.941057e-01 8.060047e-03 -1.081155e-01
    outer loop
      vertex   7.250000e+00 5.000000e+00 3.000000e+01
      vertex   7.266121e+00 7.000000e+00 3.029733e+01
      vertex   7.314294e+00 5.000000e+00 3.059117e+01
    endloop
  endfacet
  facet normal 9.765888e-01 -8.060047e-03 -2.149635e-01
    outer loop
      vertex   7.314294e+00 5.000000e+00 3.059117e+01
      vertex   7.266121e+00 7.000000e+00 3.029733e+01
      vertex   7.393954e+00 7.000000e+00 3.087808e+01
    endloop
  endfacet
  facet normal 9.476224e-01 8.060047e-03 -3.192912e-01
    outer loop
      vertex   7.314294e+00 5.000000e+00 3.059117e+01
      vertex   7.393954e+00 7.000000e+00 3.087808e+01
      vertex   7.504168e+00 5.000000e+00 3.115470e+01
    endloop
  endfacet
  facet normal 9.075459e-01 -8.060047e-03 -4.198755e-01
    outer loop
      vertex   7.504168e+00 5.000000e+00 3.115470e+01
      vertex   7.393954e+00 7.000000e+00 3.087808e+01
      vertex   7.643643e+00 7.000000e+00 3.141777e+01
    endloop
  endfacet
  facet normal 8.568293e-01 8.060047e-03 -5.155371e-01
    outer loop
      vertex   7.504168e+00 5.000000e+00 3.115470e+01
      vertex   7.643643e+00 7.000000e+00 3.141777e+01
      vertex   7.810744e+00 5.000000e+00 3.166423e+01
    endloop
  endfacet
  facet normal 7.960672e-01 -8.060047e-03 -6.051546e-01
    outer loop
      vertex   7.810744e+00 5.000000e+00 3.166423e+01
      vertex   7.643643e+00 7.000000e+00 3.141777e+01
      vertex   8.003513e+00 7.000000e+00 3.189117e+01
    endloop
  endfacet
  facet normal 7.259719e-01 8.060047e-03 -6.876771e-01
    outer loop
      vertex   7.810744e+00 5.000000e+00 3.166423e+01
      vertex   8.003513e+00 7.000000e+00 3.189117e+01
      vertex   8.219688e+00 5.000000e+00 3.209595e+01
    endloop
  endfacet
  facet normal 6.473653e-01 -8.060047e-03 -7.621373e-01
    outer loop
      vertex   8.219688e+00 5.000000e+00 3.209595e+01
      vertex   8.003513e+00 7.000000e+00 3.189117e+01
      vertex   8.456736e+00 7.000000e+00 3.227614e+01
    endloop
  endfacet
  facet normal 5.611688e-01 8.060047e-03 -8.276621e-01
    outer loop
      vertex   8.219688e+00 5.000000e+00 3.209595e+01
      vertex   8.456736e+00 7.000000e+00 3.227614e+01
      vertex   8.711877e+00 5.000000e+00 3.242966e+01
    endloop
  endfacet
  facet normal 4.683932e-01 -8.060047e-03 -8.834833e-01
    outer loop
      vertex   8.711877e+00 5.000000e+00 3.242966e+01
      vertex   8.456736e+00 7.000000e+00 3.227614e+01
      vertex   8.982120e+00 7.000000e+00 3.255469e+01
    endloop
  endfacet
  facet normal 3.701261e-01 8.060047e-03 -9.289465e-01
    outer loop
      vertex   8.711877e+00 5.000000e+00 3.242966e+01
      vertex   8.982120e+00 7.000000e+00 3.255469e+01
      vertex   9.264297e+00 5.000000e+00 3.264976e+01
    endloop
  endfacet
  facet normal 2.675196e-01 -8.060047e-03 -9.635187e-01
    outer loop
      vertex   9.264297e+00 5.000000e+00 3.264976e+01
      vertex   8.982120e+00 7.000000e+00 3.255469e+01
      vertex   9.555100e+00 7.000000e+00 3.271377e+01
    endloop
  endfacet
  facet normal 1.617767e-01 8.060047e-03 -9.867945e-01
    outer loop
      vertex   9.264297e+00 5.000000e+00 3.264976e+01
      vertex   9.555100e+00 7.000000e+00 3.271377e+01
      vertex   9.851118e+00 5.000000e+00 3.274597e+01
    endloop
  endfacet
  facet normal 5.413715e-02 -8.060047e-03 -9.985010e-01
    outer loop
      vertex   9.851118e+00 5.000000e+00 3.274597e+01
      vertex   9.555100e+00 7.000000e+00 3.271377e+01
      vertex   1.014888e+01 7.000000e+00 3.274597e+01
    endloop
  endfacet
  facet normal -5.413715e-02 8.060047e-03 -9.985010e-01
    outer loop
      vertex   9.851118e+00 5.000000e+00 3.274597e+01
      vertex   1.014888e+01 7.000000e+00 3.274597e+01
      vertex   1.044490e+01 5.000000e+00 3.271377e+01
    endloop
  endfacet
  facet normal -1.617767e-01 -8.060047e-03 -9.867945e-01
    outer loop
      vertex   1.044490e+01 5.000000e+00 3.271377e+01
      vertex   1.014888e+01 7.000000e+00 3.274597e+01
      vertex   1.073570e+01 7.000000e+00 3.264976e+01
    endloop
  endfacet
  facet normal -2.675196e-01 8.060047e-03 -9.635187e-01
    outer loop
      vertex   1.044490e+01 5.000000e+00 3.271377e+01
      vertex   1.073570e+01 7.000000e+00 3.264976e+01
      vertex   1.101788e+01 5.000000e+00 3.255469e+01
    endloop
  endfacet
  facet normal -3.701261e-01 -8.060047e-03 -9.289465e-01
    outer loop
      vertex   1.101788e+01 5.000000e+00 3.255469e+01
      vertex   1.073570e+01 7.000000e+00 3.264976e+01
      vertex   1.128812e+01 7.000000e+00 3.242966e+01
    endloop
  endfacet
  facet normal -4.683932e-01 8.060047e-03 -8.834833e-01
    outer loop
      vertex   1.101788e+01 5.000000e+00 3.255469e+01
      vertex   1.128812e+01 7.000000e+00 3.242966e+01
      vertex   1.154326e+01 5.000000e+00 3.227614e+01
    endloop
  endfacet
  facet normal -5.611688e-01 -8.060047e-03 -8.276621e-01
    outer loop
      vertex   1.154326e+01 5.000000e+00 3.227614e+01
      vertex   1.128812e+01 7.000000e+00 3.242966e+01
      vertex   1.178031e+01 7.000000e+00 3.209595e+01
    endloop
  endfacet
  facet normal -6.473653e-01 8.060047e-03 -7.621373e-01
    outer loop
      vertex   1.154326e+01 5.000000e+00 3.227614e+01
      vertex   1.178031e+01 7.000000e+00 3.209595e+01
      vertex   1.199649e+01 5.000000e+00 3.189117e+01
    endloop
  endfacet
  facet normal -7.259719e-01 -8.060047e-03 -6.876771e-01
    outer loop
      vertex   1.199649e+01 5.000000e+00 3.189117e+01
      vertex   1.178031e+01 7.000000e+00 3.209595e+01
      vertex   1.218926e+01 7.000000e+00 3.166423e+01
    endloop
  endfacet
  facet normal -7.960672e-01 8.060047e-03 -6.051546e-01
    outer loop
      vertex   1.199649e+01 5.000000e+00 3.189117e+01
      vertex   1.218926e+01 7.000000e+00 3.166423e+01
      vertex   1.235636e+01 5.000000e+00 3.141777e+01
    endloop
  endfacet
  facet normal -8.568293e-01 -8.060047e-03 -5.155371e-01
    outer loop
      vertex   1.235636e+01 5.000000e+00 3.141777e+01
      vertex   1.218926e+01 7.000000e+00 3.166423e+01
      vertex   1.249583e+01 7.000000e+00 3.115470e+01
    endloop
  endfacet
  facet normal -9.075459e-01 8.060047e-03 -4.198755e-01
    outer loop
      vertex   1.235636e+01 5.000000e+00 3.141777e+01
      vertex   1.249583e+01 7.000000e+00 3.115470e+01
      vertex   1.260605e+01 5.000000e+00 3.087808e+01
    endloop
  endfacet
  facet normal -9.476224e-01 -8.060047e-03 -3.192912e-01
    outer loop
      vertex   1.260605e+01 5.000000e+00 3.087808e+01
      vertex   1.249583e+01 7.000000e+00 3.115470e+01
      vertex   1.268571e+01 7.000000e+00 3.059117e+01
    endloop
  endfacet
  facet normal -9.765888e-01 8.060047e-03 -2.149635e-01
    outer loop
      vertex   1.260605e+01 5.000000e+00 3.087808e+01
      vertex   1.268571e+01 7.000000e+00 3.059117e+01
      vertex   1.273388e+01 5.000000e+00 3.029733e+01
    endloop
  endfacet
  facet normal -9.941057e-01 -8.060047e-03 -1.081155e-01
    outer loop
      vertex   1.273388e+01 5.000000e+00 3.029733e+01
      vertex   1.268571e+01 7.000000e+00 3.059117e+01
      vertex   1.275000e+01 7.000000e+00 3.000000e+01
    endloop
  endfacet
  facet normal -9.999675e-01 8.060047e-03 0.000000e+00
    outer loop
      vertex   1.273388e+01 5.000000e+00 3.029733e+01
      vertex   1.275000e+01 7.000000e+00 3.000000e+01
      vertex   1.273388e+01 5.000000e+00 2.970267e+01
    endloop
  endfacet
  facet normal -9.941057e-01 -8.060047e-03 1.081155e-01
    outer loop
      vertex   1.273388e+01 5.000000e+00 2.970267e+01
      vertex   1.275000e+01 7.000000e+00 3.000000e+01
      vertex   1.268571e+01 7.000000e+00 2.940883e+01
    endloop
  endfacet
  facet normal -9.765888e-01 8.060047e-03 2.149635e-01
    outer loop
      vertex   1.273388e+01 5.000000e+00 2.970267e+01
      vertex   1.268571e+01 7.000000e+00 2.940883e+01
      vertex   1.260605e+01 5.000000e+00 2.912192e+01
    endloop
  endfacet
  facet normal -9.476224e-01 -8.060047e-03 3.192912e-01
    outer loop
      vertex   1.260605e+01 5.000000e+00 2.912192e+01
      vertex   1.268571e+01 7.000000e+00 2.940883e+01
      vertex   1.249583e+01 7.000000e+00 2.884530e+01
    endloop
  endfacet
  facet normal -9.075459e-01 8.060047e-03 4.198755e-01
    outer loop
      vertex   1.260605e+01 5.000000e+00 2.912192e+01
      vertex   1.249583e+01 7.000000e+00 2.884530e+01
      vertex   1.235636e+01 5.000000e+00 2.858223e+01
    endloop
  endfacet
  facet normal -8.568293e-01 -8.060047e-03 5.155371e-01
    outer loop
      vertex   1.235636e+01 5.000000e+00 2.858223e+01
      vertex   1.249583e+01 7.000000e+00 2.884530e+01
      vertex   1.218926e+01 7.000000e+00 2.833577e+01
    endloop
  endfacet
  facet normal -7.960672e-01 8.060047e-03 6.051546e-01
    outer loop
      vertex   1.235636e+01 5.000000e+00 2.858223e+01
      vertex   1.218926e+01 7.000000e+00 2.833577e+01
      vertex   1.199649e+01 5.000000e+00 2.810883e+01
    endloop
  endfacet
  facet normal -7.259719e-01 -8.060047e-03 6.876771e-01
    outer loop
      vertex   1.199649e+01 5.000000e+00 2.810883e+01
      vertex   1.218926e+01 7.000000e+00 2.833577e+01
      vertex   1.178031e+01 7.000000e+00 2.790405e+01
    endloop
  endfacet
  facet normal -6.473653e-01 8.060047e-03 7.621373e-01
    outer loop
      vertex   1.199649e+01 5.000000e+00 2.810883e+01
      vertex   1.178031e+01 7.000000e+00 2.790405e+01
      vertex   1.154326e+01 5.000000e+00 2.772386e+01
    endloop
  endfacet
  facet normal -5.611688e-01 -8.060047e-03 8.276621e-01
    outer loop
      vertex   1.154326e+01 5.000000e+00 2.772386e+01
      vertex   1.178031e+01 7.000000e+00 2.790405e+01
      vertex   1.128812e+01 7.000000e+00 2.757034e+01
    endloop
  endfacet
  facet normal -4.683932e-01 8.060047e-03 8.834833e-01
    outer loop
      vertex   1.154326e+01 5.000000e+00 2.772386e+01
      vertex   1.128812e+01 7.000000e+00 2.757034e+01
      vertex   1.101788e+01 5.000000e+00 2.744531e+01
    endloop
  endfacet
  facet normal -3.701261e-01 -8.060047e-03 9.289465e-01
    outer loop
      vertex   1.101788e+01 5.000000e+00 2.744531e+01
      vertex   1.128812e+01 7.000000e+00 2.757034e+01
      vertex   1.073570e+01 7.000000e+00 2.735024e+01
    endloop
  endfacet
  facet normal -2.675196e-01 8.060047e-03 9.635187e-01
    outer loop
      vertex   1.101788e+01 5.000000e+00 2.744531e+01
      vertex   1.073570e+01 7.000000e+00 2.735024e+01
      vertex   1.044490e+01 5.000000e+00 2.728623e+01
    endloop
  endfacet
  facet normal -1.617767e-01 -8.060047e-03 9.867945e-01
    outer loop
      vertex   1.044490e+01 5.000000e+00 2.728623e+01
      vertex   1.073570e+01 7.000000e+00 2.735024e+01
      vertex   1.014888e+01 7.000000e+00 2.725403e+01
    endloop
  endfacet
  facet normal -5.413715e-02 8.060047e-03 9.985010e-01
    outer loop
      vertex   1.044490e+01 5.000000e+00 2.728623e+01
      vertex   1.014888e+01 7.000000e+00 2.725403e+01
      vertex   9.851118e+00 5.000000e+00 2.725403e+01
    endloop
  endfacet
  facet normal 5.413715e-02 -8.060047e-03 9.985010e-01
    outer loop
      vertex   9.851118e+00 5.000000e+00 2.725403e+01
      vertex   1.014888e+01 7.000000e+00 2.725403e+01
      vertex   9.555100e+00 7.000000e+00 2.728623e+01
    endloop
  endfacet
  facet normal 1.617767e-01 8.060047e-03 9.867945e-01
    outer loop
      vertex   9.851118e+00 5.000000e+00 2.725403e+01
      vertex   9.555100e+00 7.000000e+00 2.728623e+01
      vertex   9.264297e+00 5.000000e+00 2.735024e+01
    endloop
  endfacet
  facet normal 2.675196e-01 -8.060047e-03 9.635187e-01
    outer loop
      vertex   9.264297e+00 5.000000e+00 2.735024e+01
      vertex   9.555100e+00 7.000000e+00 2.728623e+01
      vertex   8.982120e+00 7.000000e+00 2.744531e+01
    endloop
  endfacet
  facet normal 3.701261e-01 8.060047e-03 9.289465e-01
    outer loop
      vertex   9.264297e+00 5.000000e+00 2.735024e+01
      vertex   8.982120e+00 7.000000e+00 2.744531e+01
      vertex   8.711877e+00 5.000000e+00 2.757034e+01
    endloop
  endfacet
  facet normal 4.683932e-01 -8.060047e-03 8.834833e-01
    outer loop
      vertex   8.711877e+00 5.000000e+00 2.757034e+01
      vertex   8.982120e+00 7.000000e+00 2.744531e+01
      vertex   8.456736e+00 7.000000e+00 2.772386e+01
    endloop
  endfacet
  facet normal 5.611688e-01 8.060047e-03 8.276621e-01
    outer loop
      vertex   8.711877e+00 5.000000e+00 2.757034e+01
      vertex   8.456736e+00 7.000000e+00 2.772386e+01
      vertex   8.219688e+00 5.000000e+00 2.790405e+01
    endloop
  endfacet
  facet normal 6.473653e-01 -8.060047e-03 7.621373e-01
    outer loop
      vertex   8.219688e+00 5.000000e+00 2.790405e+01
      vertex   8.456736e+00 7.000000e+00 2.772386e+01
      vertex   8.003513e+00 7.000000e+00 2.810883e+01
    endloop
  endfacet
  facet normal 7.259719e-01 8.060047e-03 6.876771e-01
    outer loop
      vertex   8.219688e+00 5.000000e+00 2.790405e+01
      vertex   8.003513e+00 7.000000e+00 2.810883e+01
      vertex   7.810744e+00 5.000000e+00 2.833577e+01
    endloop
  endfacet
  facet normal 7.960672e-01 -8.060047e-03 6.051546e-01
    outer loop
      vertex   7.810744e+00 5.000000e+00 2.833577e+01
      vertex   8.003513e+00 7.000000e+00 2.810883e+01
      vertex   7.643643e+00 7.000000e+00 2.858223e+01
    endloop
  endfacet
  facet normal 8.568293e-01 8.060047e-03 5.155371e-01
    outer loop
      vertex   7.810744e+00 5.000000e+00 2.833577e+01
      vertex   7.643643e+00 7.000000e+00 2.858223e+01
      vertex   7.504168e+00 5.000000e+00 2.884530e+01
    endloop
  endfacet
  facet normal 9.075459e-01 -8.060047e-03 4.198755e-01
    outer loop
      vertex   7.504168e+00 5.000000e+00 2.884530e+01
      vertex   7.643643e+00 7.000000e+00 2.858223e+01
      vertex   7.393954e+00 7.000000e+00 2.912192e+01
    endloop
  endfacet
  facet normal 9.476224e-01 8.060047e-03 3.192912e-01
    outer loop
      vertex   7.504168e+00 5.000000e+00 2.884530e+01
      vertex   7.393954e+00 7.000000e+00 2.912192e+01
      vertex   7.314294e+00 5.000000e+00 2.940883e+01
    endloop
  endfacet
  facet normal 9.765888e-01 -8.060047e-03 2.149635e-01
    outer loop
      vertex   7.314294e+00 5.000000e+00 2.940883e+01
      vertex   7.393954e+00 7.000000e+00 2.912192e+01
      vertex   7.266121e+00 7.000000e+00 2.970267e+01
    endloop
  endfacet
  facet normal 9.941057e-01 8.060047e-03 1.081155e-01
    outer loop
      vertex   7.314293e+00 5.000000e+00 9.408831e+00
      vertex   7.266121e+00 7.000000e+00 9.702673e+00
      vertex   7.250000e+00 5.000000e+00 1.000000e+01
    endloop
  endfacet
  facet normal 9.999675e-01 -8.060047e-03 0.000000e+00
    outer loop
      vertex   7.250000e+00 5.000000e+00 1.000000e+01
      vertex   7.266121e+00 7.000000e+00 9.702673e+00
      vertex   7.266121e+00 7.000000e+00 1.029733e+01
    endloop
  endfacet
  facet normal 9.941057e-01 8.060047e-03 -1.081155e-01
    outer loop
      vertex   7.250000e+00 5.000000e+00 1.000000e+01
      vertex   7.266121e+00 7.000000e+00 1.029733e+01
      vertex   7.314293e+00 5.000000e+00 1.059117e+01
    endloop
  endfacet
  facet normal 9.765888e-01 -8.060047e-03 -2.149635e-01
    outer loop
      vertex   7.314293e+00 5.000000e+00 1.059117e+01
      vertex   7.266121e+00 7.000000e+00 1.029733e+01
      vertex   7.393954e+00 7.000000e+00 1.087808e+01
    endloop
  endfacet
  facet normal 9.476224e-01 8.060047e-03 -3.192912e-01
    outer loop
      vertex   7.314293e+00 5.000000e+00 1.059117e+01
      vertex   7.393954e+00 7.000000e+00 1.087808e+01
      vertex   7.504168e+00 5.000000e+00 1.115470e+01
    endloop
  endfacet
  facet normal 9.075459e-01 -8.060047e-03 -4.198755e-01
    outer loop
      vertex   7.504168e+00 5.000000e+00 1.115470e+01
      vertex   7.393954e+00 7.000000e+00 1.087808e+01
      vertex   7.643643e+00 7.000000e+00 1.141777e+01
    endloop
  endfacet
  facet normal 8.568293e-01 8.060047e-03 -5.155371e-01
    outer loop
      vertex   7.504168e+00 5.000000e+00 1.115470e+01
      vertex   7.643643e+00 7.000000e+00 1.141777e+01
      vertex   7.810744e+00 5.000000e+00 1.166423e+01
    endloop
  endfacet
  facet normal 7.960672e-01 -8.060047e-03 -6.051546e-01
    outer loop
      vertex   7.810744e+00 5.000000e+00 1.166423e+01
      vertex   7.643643e+00 7.000000e+00 1.141777e+01
      vertex   8.003512e+00 7.000000e+00 1.189117e+01
    endloop
  endfacet
  facet normal 7.259719e-01 8.060047e-03 -6.876771e-01
    outer loop
      vertex   7.810744e+00 5.000000e+00 1.166423e+01
      vertex   8.003512e+00 7.000000e+00 1.189117e+01
      vertex   8.219688e+00 5.000000e+00 1.209595e+01
    endloop
  endfacet
  facet normal 6.473653e-01 -8.060047e-03 -7.621373e-01
    outer loop
      vertex   8.219688e+00 5.000000e+00 1.209595e+01
      vertex   8.003512e+00 7.000000e+00 1.189117e+01
      vertex   8.456736e+00 7.000000e+00 1.227614e+01
    endloop
  endfacet
  facet normal 5.611688e-01 8.060047e-03 -8.276621e-01
    outer loop
      vertex   8.219688e+00 5.000000e+00 1.209595e+01
      vertex   8.456736e+00 7.000000e+00 1.227614e+01
      vertex   8.711877e+00 5.000000e+00 1.242966e+01
    endloop
  endfacet
  facet normal 4.683932e-01 -8.060047e-03 -8.834833e-01
    outer loop
      vertex   8.711877e+00 5.000000e+00 1.242966e+01
      vertex   8.456736e+00 7.000000e+00 1.227614e+01
      vertex   8.982120e+00 7.000000e+00 1.255469e+01
    endloop
  endfacet
  facet normal 3.701261e-01 8.060047e-03 -9.289465e-01
    outer loop
      vertex   8.711877e+00 5.000000e+00 1.242966e+01
      vertex   8.982120e+00 7.000000e+00 1.255469e+01
      vertex   9.264297e+00 5.000000e+00 1.264976e+01
    endloop
  endfacet
  facet normal 2.675196e-01 -8.060047e-03 -9.635187e-01
    outer loop
      vertex   9.264297e+00 5.000000e+00 1.264976e+01
      vertex   8.982120e+00 7.000000e+00 1.255469e+01
      vertex   9.555100e+00 7.000000e+00 1.271377e+01
    endloop
  endfacet
  facet normal 1.617767e-01 8.060047e-03 -9.867945e-01
    outer loop
      vertex   9.264297e+00 5.000000e+00 1.264976e+01
      vertex   9.555100e+00 7.000000e+00 1.271377e+01
      vertex   9.851118e+00 5.000000e+00 1.274597e+01
    endloop
  endfacet
  facet normal 5.413715e-02 -8.060047e-03 -9.985010e-01
    outer loop
      vertex   9.851118e+00 5.000000e+00 1.274597e+01
      vertex   9.555100e+00 7.000000e+00 1.271377e+01
      vertex   1.014888e+01 7.000000e+00 1.274597e+01
    endloop
  endfacet
  facet normal -5.413715e-02 8.060047e-03 -9.985010e-01
    outer loop
      vertex   9.851118e+00 5.000000e+00 1.274597e+01
      vertex   1.014888e+01 7.000000e+00 1.274597e+01
      vertex   1.044490e+01 5.000000e+00 1.271377e+01
    endloop
  endfacet
  facet normal -1.617767e-01 -8.060047e-03 -9.867945e-01
    outer loop
      vertex   1.044490e+01 5.000000e+00 1.271377e+01
      vertex   1.014888e+01 7.000000e+00 1.274597e+01
      vertex   1.073570e+01 7.000000e+00 1.264976e+01
    endloop
  endfacet
  facet normal -2.675196e-01 8.060047e-03 -9.635187e-01
    outer loop
      vertex   1.044490e+01 5.000000e+00 1.271377e+01
      vertex   1.073570e+01 7.000000e+00 1.264976e+01
      vertex   1.101788e+01 5.000000e+00 1.255469e+01
    endloop
  endfacet
  facet normal -3.701261e-01 -8.060047e-03 -9.289465e-01
    outer loop
      vertex   1.101788e+01 5.000000e+00 1.255469e+01
      vertex   1.073570e+01 7.000000e+00 1.264976e+01
      vertex   1.128812e+01 7.000000e+00 1.242966e+01
    endloop
  endfacet
  facet normal -4.683932e-01 8.060047e-03 -8.834833e-01
    outer loop
      vertex   1.101788e+01 5.000000e+00 1.255469e+01
      vertex   1.128812e+01 7.000000e+00 1.242966e+01
      vertex   1.154326e+01 5.000000e+00 1.227614e+01
    endloop
  endfacet
  facet normal -5.611688e-01 -8.060047e-03 -8.276621e-01
    outer loop
      vertex   1.154326e+01 5.000000e+00 1.227614e+01
      vertex   1.128812e+01 7.000000e+00 1.242966e+01
      vertex   1.178031e+01 7.000000e+00 1.209595e+01
    endloop
  endfacet
  facet normal -6.473653e-01 8.060047e-03 -7.621373e-01
    outer loop
      vertex   1.154326e+01 5.000000e+00 1.227614e+01
      vertex   1.178031e+01 7.000000e+00 1.209595e+01
      vertex   1.199649e+01 5.000000e+00 1.189117e+01
    endloop
  endfacet
  facet normal -7.259719e-01 -8.060047e-03 -6.876771e-01
    outer loop
      vertex   1.199649e+01 5.000000e+00 1.189117e+01
      vertex   1.178031e+01 7.000000e+00 1.209595e+01
      vertex   1.218926e+01 7.000000e+00 1.166423e+01
    endloop
  endfacet
  facet normal -7.960672e-01 8.060047e-03 -6.051546e-01
    outer loop
      vertex   1.199649e+01 5.000000e+00 1.189117e+01
      vertex   1.218926e+01 7.000000e+00 1.166423e+01
      vertex   1.235636e+01 5.000000e+00 1.141777e+01
    endloop
  endfacet
  facet normal -8.568293e-01 -8.060047e-03 -5.155371e-01
    outer loop
      vertex   1.235636e+01 5.000000e+00 1.141777e+01
      vertex   1.218926e+01 7.000000e+00 1.166423e+01
      vertex   1.249583e+01 7.000000e+00 1.115470e+01
    endloop
  endfacet
  facet normal -9.075459e-01 8.060047e-03 -4.198755e-01
    outer loop
      vertex   1.235636e+01 5.000000e+00 1.141777e+01
      vertex   1.249583e+01 7.000000e+00 1.115470e+01
      vertex   1.260605e+01 5.000000e+00 1.087808e+01
    endloop
  endfacet
  facet normal -9.476224e-01 -8.060047e-03 -3.192912e-01
    outer loop
      vertex   1.260605e+01 5.000000e+00 1.087808e+01
      vertex   1.249583e+01 7.000000e+00 1.115470e+01
      vertex   1.268571e+01 7.000000e+00 1.059117e+01
    endloop
  endfacet
  facet normal -9.765888e-01 8.060047e-03 -2.149635e-01
    outer loop
      vertex   1.260605e+01 5.000000e+00 1.087808e+01
      vertex   1.268571e+01 7.000000e+00 1.059117e+01
      vertex   1.273388e+01 5.000000e+00 1.029733e+01
    endloop
  endfacet
  facet normal -9.941057e-01 -8.060047e-03 -1.081155e-01
    outer loop
      vertex   1.273388e+01 5.000000e+00 1.029733e+01
      vertex   1.268571e+01 7.000000e+00 1.059117e+01
      vertex   1.275000e+01 7.000000e+00 1.000000e+01
    endloop
  endfacet
  facet normal -9.999675e-01 8.060047e-03 0.000000e+00
    outer loop
      vertex   1.273388e+01 5.000000e+00 1.029733e+01
      vertex   1.275000e+01 7.000000e+00 1.000000e+01
      vertex   1.273388e+01 5.000000e+00 9.702673e+00
    endloop
  endfacet
  facet normal -9.941057e-01 -8.060047e-03 1.081155e-01
    outer loop
      vertex   1.273388e+01 5.000000e+00 9.702673e+00
      vertex   1.275000e+01 7.000000e+00 1.000000e+01
      vertex   1.268571e+01 7.000000e+00 9.408831e+00
    endloop
  endfacet
  facet normal -9.765888e-01 8.060047e-03 2.149635e-01
    outer loop
      vertex   1.273388e+01 5.000000e+00 9.702673e+00
      vertex   1.268571e+01 7.000000e+00 9.408831e+00
      vertex   1.260605e+01 5.000000e+00 9.121921e+00
    endloop
  endfacet
  facet normal -9.476224e-01 -8.060047e-03 3.192912e-01
    outer loop
      vertex   1.260605e+01 5.000000e+00 9.121921e+00
      vertex   1.268571e+01 7.000000e+00 9.408831e+00
      vertex   1.249583e+01 7.000000e+00 8.845305e+00
    endloop
  endfacet
  facet normal -9.075459e-01 8.060047e-03 4.198755e-01
    outer loop
      vertex   1.260605e+01 5.000000e+00 9.121921e+00
      vertex   1.249583e+01 7.000000e+00 8.845305e+00
      vertex   1.235636e+01 5.000000e+00 8.582227e+00
    endloop
  endfacet
  facet normal -8.568293e-01 -8.060047e-03 5.155371e-01
    outer loop
      vertex   1.235636e+01 5.000000e+00 8.582227e+00
      vertex   1.249583e+01 7.000000e+00 8.845305e+00
      vertex   1.218926e+01 7.000000e+00 8.335771e+00
    endloop
  endfacet
  facet normal -7.960672e-01 8.060047e-03 6.051546e-01
    outer loop
      vertex   1.235636e+01 5.000000e+00 8.582227e+00
      vertex   1.218926e+01 7.000000e+00 8.335771e+00
      vertex   1.199649e+01 5.000000e+00 8.108826e+00
    endloop
  endfacet
  facet normal -7.259719e-01 -8.060047e-03 6.876771e-01
    outer loop
      vertex   1.199649e+01 5.000000e+00 8.108826e+00
      vertex   1.218926e+01 7.000000e+00 8.335771e+00
      vertex   1.178031e+01 7.000000e+00 7.904054e+00
    endloop
  endfacet
  facet normal -6.473653e-01 8.060047e-03 7.621373e-01
    outer loop
      vertex   1.199649e+01 5.000000e+00 8.108826e+00
      vertex   1.178031e+01 7.000000e+00 7.904054e+00
      vertex   1.154326e+01 5.000000e+00 7.723855e+00
    endloop
  endfacet
  facet normal -5.611688e-01 -8.060047e-03 8.276621e-01
    outer loop
      vertex   1.154326e+01 5.000000e+00 7.723855e+00
      vertex   1.178031e+01 7.000000e+00 7.904054e+00
      vertex   1.128812e+01 7.000000e+00 7.570342e+00
    endloop
  endfacet
  facet normal -4.683932e-01 8.060047e-03 8.834833e-01
    outer loop
      vertex   1.154326e+01 5.000000e+00 7.723855e+00
      vertex   1.128812e+01 7.000000e+00 7.570342e+00
      vertex   1.101788e+01 5.000000e+00 7.445314e+00
    endloop
  endfacet
  facet normal -3.701261e-01 -8.060047e-03 9.289465e-01
    outer loop
      vertex   1.101788e+01 5.000000e+00 7.445314e+00
      vertex   1.128812e+01 7.000000e+00 7.570342e+00
      vertex   1.073570e+01 7.000000e+00 7.350238e+00
    endloop
  endfacet
  facet normal -2.675196e-01 8.060047e-03 9.635187e-01
    outer loop
      vertex   1.101788e+01 5.000000e+00 7.445314e+00
      vertex   1.073570e+01 7.000000e+00 7.350238e+00
      vertex   1.044490e+01 5.000000e+00 7.286227e+00
    endloop
  endfacet
  facet normal -1.617767e-01 -8.060047e-03 9.867945e-01
    outer loop
      vertex   1.044490e+01 5.000000e+00 7.286227e+00
      vertex   1.073570e+01 7.000000e+00 7.350238e+00
      vertex   1.014888e+01 7.000000e+00 7.254033e+00
    endloop
  endfacet
  facet normal -5.413715e-02 8.060047e-03 9.985010e-01
    outer loop
      vertex   1.044490e+01 5.000000e+00 7.286227e+00
      vertex   1.014888e+01 7.000000e+00 7.254033e+00
      vertex   9.851118e+00 5.000000e+00 7.254033e+00
    endloop
  endfacet
  facet normal 5.413715e-02 -8.060047e-03 9.985010e-01
    outer loop
      vertex   9.851118e+00 5.000000e+00 7.254033e+00
      vertex   1.014888e+01 7.000000e+00 7.254033e+00
      vertex   9.555100e+00 7.000000e+00 7.286227e+00
    endloop
  endfacet
  facet normal 1.617767e-01 8.060047e-03 9.867945e-01
    outer loop
      vertex   9.851118e+00 5.000000e+00 7.254033e+00
      vertex   9.555100e+00 7.000000e+00 7.286227e+00
      vertex   9.264297e+00 5.000000e+00 7.350238e+00
    endloop
  endfacet
  facet normal 2.675196e-01 -8.060047e-03 9.635187e-01
    outer loop
      vertex   9.264297e+00 5.000000e+00 7.350238e+00
      vertex   9.555100e+00 7.000000e+00 7.286227e+00
      vertex   8.982120e+00 7.000000e+00 7.445314e+00
    endloop
  endfacet
  facet normal 3.701261e-01 8.060047e-03 9.289465e-01
    outer loop
      vertex   9.264297e+00 5.000000e+00 7.350238e+00
      vertex   8.982120e+00 7.000000e+00 7.445314e+00
      vertex   8.711877e+00 5.000000e+00 7.570342e+00
    endloop
  endfacet
  facet normal 4.683932e-01 -8.060047e-03 8.834833e-01
    outer loop
      vertex   8.711877e+00 5.000000e+00 7.570342e+00
      vertex   8.982120e+00 7.000000e+00 7.445314e+00
      vertex   8.456736e+00 7.000000e+00 7.723855e+00
    endloop
  endfacet
  facet normal 5.611688e-01 8.060047e-03 8.276621e-01
    outer loop
      vertex   8.711877e+00 5.000000e+00 7.570342e+00
      vertex   8.456736e+00 7.000000e+00 7.723855e+00
      vertex   8.219688e+00 5.000000e+00 7.904054e+00
    endloop
  endfacet
  facet normal 6.473653e-01 -8.060047e-03 7.621373e-01
    outer loop
      vertex   8.219688e+00 5.000000e+00 7.904054e+00
      vertex   8.456736e+00 7.000000e+00 7.723855e+00
      vertex   8.003512e+00 7.000000e+00 8.108826e+00
    endloop
  endfacet
  facet normal 7.259719e-01 8.060047e-03 6.876771e-01
    outer loop
      vertex   8.219688e+00 5.000000e+00 7.904054e+00
      vertex   8.003512e+00 7.000000e+00 8.108826e+00
      vertex   7.810744e+00 5.000000e+00 8.335771e+00
    endloop
  endfacet
  facet normal 7.960672e-01 -8.060047e-03 6.051546e-01
    outer loop
      vertex   7.810744e+00 5.000000e+00 8.335771e+00
      vertex   8.003512e+00 7.000000e+00 8.108826e+00
      vertex   7.643643e+00 7.000000e+00 8.582227e+00
    endloop
  endfacet
  facet normal 8.568293e-01 8.060047e-03 5.155371e-01
    outer loop
      vertex   7.810744e+00 5.000000e+00 8.335771e+00
      vertex   7.643643e+00 7.000000e+00 8.582227e+00
      vertex   7.504168e+00 5.000000e+00 8.845305e+00
    endloop
  endfacet
  facet normal 9.075459e-01 -8.060047e-03 4.198755e-01
    outer loop
      vertex   7.504168e+00 5.000000e+00 8.845305e+00
      vertex   7.643643e+00 7.000000e+00 8.582227e+00
      vertex   7.393954e+00 7.000000e+00 9.121921e+00
    endloop
  endfacet
  facet normal 9.476224e-01 8.060047e-03 3.192912e-01
    outer loop
      vertex   7.504168e+00 5.000000e+00 8.845305e+00
      vertex   7.393954e+00 7.000000e+00 9.121921e+00
      vertex   7.314293e+00 5.000000e+00 9.408831e+00
    endloop
  endfacet
  facet normal 9.765888e-01 -8.060047e-03 2.149635e-01
    outer loop
      vertex   7.314293e+00 5.000000e+00 9.408831e+00
      vertex   7.393954e+00 7.000000e+00 9.121921e+00
      vertex   7.266121e+00 7.000000e+00 9.702673e+00
    endloop
  endfacet
  facet normal -1.000000e+00 1.224647e-16 0.000000e+00
    outer loop
      vertex   8.572528e-16 7.000000e+00 0.000000e+00
      vertex   0.000000e+00 0.000000e+00 0.000000e+00
      vertex   8.572528e-16 7.000000e+00 4.000000e+01
    endloop
  endfacet
  facet normal -1.000000e+00 1.224647e-16 0.000000e+00
    outer loop
      vertex   8.572528e-16 7.000000e+00 4.000000e+01
      vertex   0.000000e+00 0.000000e+00 0.000000e+00
      vertex   0.000000e+00 0.000000e+00 4.000000e+01
    endloop
  endfacet
  facet normal 0.000000e+00 1.000000e+00 0.000000e+00
    outer loop
      vertex   1.268571e+01 7.000000e+00 2.940883e+01
      vertex   1.275000e+01 7.000000e+00 3.000000e+01
      vertex   2.000000e+01 7.000000e+00 4.000000e+01
    endloop
  endfacet
  facet normal 0.000000e+00 1.000000e+00 0.000000e+00
    outer loop
      vertex   2.000000e+01 7.000000e+00 4.000000e+01
      vertex   1.275000e+01 7.000000e+00 3.000000e+01
      vertex   1.268571e+01 7.000000e+00 3.059117e+01
    endloop
  endfacet
  facet normal 0.000000e+00 1.000000e+00 0.000000e+00
    outer loop
      vertex   2.000000e+01 7.000000e+00 4.000000e+01
      vertex   1.268571e+01 7.000000e+00 3.059117e+01
      vertex   1.249583e+01 7.000000e+00 3.115470e+01
    endloop
  endfacet
  facet normal 0.000000e+00 1.000000e+00 -0.000000e+00
    outer loop
      vertex   1.249583e+01 7.000000e+00 3.115470e+01
      vertex   1.218926e+01 7.000000e+00 3.166423e+01
      vertex   2.000000e+01 7.000000e+00 4.000000e+01
    endloop
  endfacet
  facet normal 0.000000e+00 1.000000e+00 0.000000e+00
    outer loop
      vertex   2.000000e+01 7.000000e+00 4.000000e+01
      vertex   1.218926e+01 7.000000e+00 3.166423e+01
      vertex   1.178031e+01 7.000000e+00 3.209595e+01
    endloop
  endfacet
  facet normal 0.000000e+00 1.000000e+00 0.000000e+00
    outer loop
      vertex   2.000000e+01 7.000000e+00 4.000000e+01
      vertex   1.178031e+01 7.000000e+00 3.209595e+01
      vertex   1.128812e+01 7.000000e+00 3.242966e+01
    endloop
  endfacet
  facet normal 0.000000e+00 1.000000e+00 -0.000000e+00
    outer loop
      vertex   1.128812e+01 7.000000e+00 3.242966e+01
      vertex   1.073570e+01 7.000000e+00 3.264976e+01
      vertex   2.000000e+01 7.000000e+00 4.000000e+01
    endloop
  endfacet
  facet normal 0.000000e+00 1.000000e+00 0.000000e+00
    outer loop
      vertex   2.000000e+01 7.000000e+00 4.000000e+01
      vertex   1.073570e+01 7.000000e+00 3.264976e+01
      vertex   1.014888e+01 7.000000e+00 3.274597e+01
    endloop
  endfacet
  facet normal 0.000000e+00 1.000000e+00 0.000000e+00
    outer loop
      vertex   2.000000e+01 7.000000e+00 4.000000e+01
      vertex   1.014888e+01 7.000000e+00 3.274597e+01
      vertex   8.572528e-16 7.000000e+00 4.000000e+01
    endloop
  endfacet
  facet normal 0.000000e+00 1.000000e+00 0.000000e+00
    outer loop
      vertex   8.572528e-16 7.000000e+00 4.000000e+01
      vertex   1.014888e+01 7.000000e+00 3.274597e+01
      vertex   9.555100e+00 7.000000e+00 3.271377e+01
    endloop
  endfacet
  facet normal 0.000000e+00 1.000000e+00 0.000000e+00
    outer loop
      vertex   8.572528e-16 7.000000e+00 4.000000e+01
      vertex   9.555100e+00 7.000000e+00 3.271377e+01
      vertex   8.982120e+00 7.000000e+00 3.255469e+01
    endloop
  endfacet
  facet normal 0.000000e+00 1.000000e+00 0.000000e+00
    outer loop
      vertex   8.982120e+00 7.000000e+00 3.255469e+01
      vertex   8.456736e+00 7.000000e+00 3.227614e+01
      vertex   8.572528e-16 7.000000e+00 4.000000e+01
    endloop
  endfacet
  facet normal 0.000000e+00 1.000000e+00 0.000000e+00
    outer loop
      vertex   8.572528e-16 7.000000e+00 4.000000e+01
      vertex   8.456736e+00 7.000000e+00 3.227614e+01
      vertex   8.003513e+00 7.000000e+00 3.189117e+01
    endloop
  endfacet
  facet normal 0.000000e+00 1.000000e+00 0.000000e+00
    outer loop
      vertex   8.572528e-16 7.000000e+00 4.000000e+01
      vertex   8.003513e+00 7.000000e+00 3.189117e+01
      vertex   7.643643e+00 7.000000e+00 3.141777e+01
    endloop
  endfacet
  facet normal 0.000000e+00 1.000000e+00 0.000000e+00
    outer loop
      vertex   7.643643e+00 7.000000e+00 3.141777e+01
      vertex   7.393954e+00 7.000000e+00 3.087808e+01
      vertex   8.572528e-16 7.000000e+00 4.000000e+01
    endloop
  endfacet
  facet normal 0.000000e+00 1.000000e+00 0.000000e+00
    outer loop
      vertex   8.572528e-16 7.000000e+00 4.000000e+01
      vertex   7.393954e+00 7.000000e+00 3.087808e+01
      vertex   7.266121e+00 7.000000e+00 3.029733e+01
    endloop
  endfacet
  facet normal 0.000000e+00 1.000000e+00 0.000000e+00
    outer loop
      vertex   8.572528e-16 7.000000e+00 4.000000e+01
      vertex   7.266121e+00 7.000000e+00 3.029733e+01
      vertex   7.266121e+00 7.000000e+00 2.970267e+01
    endloop
  endfacet
  facet normal 0.000000e+00 1.000000e+00 0.000000e+00
    outer loop
      vertex   7.266121e+00 7.000000e+00 2.970267e+01
      vertex   7.393954e+00 7.000000e+00 2.912192e+01
      vertex   8.572528e-16 7.000000e+00 4.000000e+01
    endloop
  endfacet
  facet normal 0.000000e+00 1.000000e+00 0.000000e+00
    outer loop
      vertex   8.572528e-16 7.000000e+00 4.000000e+01
      vertex   7.393954e+00 7.000000e+00 2.912192e+01
      vertex   7.393954e+00 7.000000e+00 1.087808e+01
    endloop
  endfacet
  facet normal 0.000000e+00 1.000000e+00 0.000000e+00
    outer loop
      vertex   8.572528e-16 7.000000e+00 4.000000e+01
      vertex   7.393954e+00 7.000000e+00 1.087808e+01
      vertex   8.572528e-16 7.000000e+00 0.000000e+00
    endloop
  endfacet
  facet normal 0.000000e+00 1.000000e+00 0.000000e+00
    outer loop
      vertex   8.572528e-16 7.000000e+00 0.000000e+00
      vertex   7.393954e+00 7.000000e+00 1.087808e+01
      vertex   7.266121e+00 7.000000e+00 1.029733e+01
    endloop
  endfacet
  facet normal 0.000000e+00 1.000000e+00 0.000000e+00
    outer loop
      vertex   8.572528e-16 7.000000e+00 0.000000e+00
      vertex   7.266121e+00 7.000000e+00 1.029733e+01
      vertex   7.266121e+00 7.000000e+00 9.702673e+00
    endloop
  endfacet
  facet normal 0.000000e+00 1.000000e+00 0.000000e+00
    outer loop
      vertex   7.393954e+00 7.000000e+00 1.087808e+01
      vertex   7.393954e+00 7.000000e+00 2.912192e+01
      vertex   7.643643e+00 7.000000e+00 1.141777e+01
    endloop
  endfacet
  facet normal 0.000000e+00 1.000000e+00 -0.000000e+00
    outer loop
      vertex   7.643643e+00 7.000000e+00 1.141777e+01
      vertex   7.393954e+00 7.000000e+00 2.912192e+01
      vertex   7.643643e+00 7.000000e+00 2.858223e+01
    endloop
  endfacet
  facet normal 0.000000e+00 1.000000e+00 0.000000e+00
    outer loop
      vertex   7.643643e+00 7.000000e+00 1.141777e+01
      vertex   7.643643e+00 7.000000e+00 2.858223e+01
      vertex   8.003512e+00 7.000000e+00 1.189117e+01
    endloop
  endfacet
  facet normal 0.000000e+00 1.000000e+00 -0.000000e+00
    outer loop
      vertex   8.003512e+00 7.000000e+00 1.189117e+01
      vertex   7.643643e+00 7.000000e+00 2.858223e+01
      vertex   8.003513e+00 7.000000e+00 2.810883e+01
    endloop
  endfacet
  facet normal 0.000000e+00 1.000000e+00 0.000000e+00
    outer loop
      vertex   8.003512e+00 7.000000e+00 1.189117e+01
      vertex   8.003513e+00 7.000000e+00 2.810883e+01
      vertex   8.456736e+00 7.000000e+00 1.227614e+01
    endloop
  endfacet
  facet normal 0.000000e+00 1.000000e+00 -0.000000e+00
    outer loop
      vertex   8.456736e+00 7.000000e+00 1.227614e+01
      vertex   8.003513e+00 7.000000e+00 2.810883e+01
      vertex   8.456736e+00 7.000000e+00 2.772386e+01
    endloop
  endfacet
  facet normal 0.000000e+00 1.000000e+00 0.000000e+00
    outer loop
      vertex   8.456736e+00 7.000000e+00 1.227614e+01
      vertex   8.456736e+00 7.000000e+00 2.772386e+01
      vertex   8.982120e+00 7.000000e+00 1.255469e+01
    endloop
  endfacet
  facet normal 0.000000e+00 1.000000e+00 -0.000000e+00
    outer loop
      vertex   8.982120e+00 7.000000e+00 1.255469e+01
      vertex   8.456736e+00 7.000000e+00 2.772386e+01
      vertex   8.982120e+00 7.000000e+00 2.744531e+01
    endloop
  endfacet
  facet normal 0.000000e+00 1.000000e+00 0.000000e+00
    outer loop
      vertex   8.982120e+00 7.000000e+00 1.255469e+01
      vertex   8.982120e+00 7.000000e+00 2.744531e+01
      vertex   9.555100e+00 7.000000e+00 1.271377e+01
    endloop
  endfacet
  facet normal 0.000000e+00 1.000000e+00 -0.000000e+00
    outer loop
      vertex   9.555100e+00 7.000000e+00 1.271377e+01
      vertex   8.982120e+00 7.000000e+00 2.744531e+01
      vertex   9.555100e+00 7.000000e+00 2.728623e+01
    endloop
  endfacet
  facet normal 0.000000e+00 1.000000e+00 0.000000e+00
    outer loop
      vertex   9.555100e+00 7.000000e+00 1.271377e+01
      vertex   9.555100e+00 7.000000e+00 2.728623e+01
      vertex   1.014888e+01 7.000000e+00 1.274597e+01
    endloop
  endfacet
  facet normal 0.000000e+00 1.000000e+00 -0.000000e+00
    outer loop
      vertex   1.014888e+01 7.000000e+00 1.274597e+01
      vertex   9.555100e+00 7.000000e+00 2.728623e+01
      vertex   1.014888e+01 7.000000e+00 2.725403e+01
    endloop
  endfacet
  facet normal -0.000000e+00 1.000000e+00 0.000000e+00
    outer loop
      vertex   1.014888e+01 7.000000e+00 1.274597e+01
      vertex   1.014888e+01 7.000000e+00 2.725403e+01
      vertex   1.073570e+01 7.000000e+00 1.264976e+01
    endloop
  endfacet
  facet normal 0.000000e+00 1.000000e+00 -0.000000e+00
    outer loop
      vertex   1.073570e+01 7.000000e+00 1.264976e+01
      vertex   1.014888e+01 7.000000e+00 2.725403e+01
      vertex   1.073570e+01 7.000000e+00 2.735024e+01
    endloop
  endfacet
  facet normal -0.000000e+00 1.000000e+00 0.000000e+00
    outer loop
      vertex   1.073570e+01 7.000000e+00 1.264976e+01
      vertex   1.073570e+01 7.000000e+00 2.735024e+01
      vertex   1.128812e+01 7.000000e+00 1.242966e+01
    endloop
  endfacet
  facet normal 0.000000e+00 1.000000e+00 -0.000000e+00
    outer loop
      vertex   1.128812e+01 7.000000e+00 1.242966e+01
      vertex   1.073570e+01 7.000000e+00 2.735024e+01
      vertex   1.128812e+01 7.000000e+00 2.757034e+01
    endloop
  endfacet
  facet normal -0.000000e+00 1.000000e+00 0.000000e+00
    outer loop
      vertex   1.128812e+01 7.000000e+00 1.242966e+01
      vertex   1.128812e+01 7.000000e+00 2.757034e+01
      vertex   1.178031e+01 7.000000e+00 1.209595e+01
    endloop
  endfacet
  facet normal 0.000000e+00 1.000000e+00 -0.000000e+00
    outer loop
      vertex   1.178031e+01 7.000000e+00 1.209595e+01
      vertex   1.128812e+01 7.000000e+00 2.757034e+01
      vertex   1.178031e+01 7.000000e+00 2.790405e+01
    endloop
  endfacet
  facet normal -0.000000e+00 1.000000e+00 0.000000e+00
    outer loop
      vertex   1.178031e+01 7.000000e+00 1.209595e+01
      vertex   1.178031e+01 7.000000e+00 2.790405e+01
      vertex   1.218926e+01 7.000000e+00 1.166423e+01
    endloop
  endfacet
  facet normal 0.000000e+00 1.000000e+00 -0.000000e+00
    outer loop
      vertex   1.218926e+01 7.000000e+00 1.166423e+01
      vertex   1.178031e+01 7.000000e+00 2.790405e+01
      vertex   1.218926e+01 7.000000e+00 2.833577e+01
    endloop
  endfacet
  facet normal -0.000000e+00 1.000000e+00 0.000000e+00
    outer loop
      vertex   1.218926e+01 7.000000e+00 1.166423e+01
      vertex   1.218926e+01 7.000000e+00 2.833577e+01
      vertex   1.249583e+01 7.000000e+00 1.115470e+01
    endloop
  endfacet
  facet normal 0.000000e+00 1.000000e+00 -0.000000e+00
    outer loop
      vertex   1.249583e+01 7.000000e+00 1.115470e+01
      vertex   1.218926e+01 7.000000e+00 2.833577e+01
      vertex   1.249583e+01 7.000000e+00 2.884530e+01
    endloop
  endfacet
  facet normal -0.000000e+00 1.000000e+00 0.000000e+00
    outer loop
      vertex   1.249583e+01 7.000000e+00 1.115470e+01
      vertex   1.249583e+01 7.000000e+00 2.884530e+01
      vertex   1.268571e+01 7.000000e+00 1.059117e+01
    endloop
  endfacet
  facet normal 0.000000e+00 1.000000e+00 -0.000000e+00
    outer loop
      vertex   1.268571e+01 7.000000e+00 1.059117e+01
      vertex   1.249583e+01 7.000000e+00 2.884530e+01
      vertex   1.268571e+01 7.000000e+00 2.940883e+01
    endloop
  endfacet
  facet normal -0.000000e+00 1.000000e+00 0.000000e+00
    outer loop
      vertex   1.268571e+01 7.000000e+00 1.059117e+01
      vertex   1.268571e+01 7.000000e+00 2.940883e+01
      vertex   2.000000e+01 7.000000e+00 0.000000e+00
    endloop
  endfacet
  facet normal 0.000000e+00 1.000000e+00 -0.000000e+00
    outer loop
      vertex   2.000000e+01 7.000000e+00 0.000000e+00
      vertex   1.268571e+01 7.000000e+00 2.940883e+01
      vertex   2.000000e+01 7.000000e+00 4.000000e+01
    endloop
  endfacet
  facet normal -0.000000e+00 1.000000e+00 0.000000e+00
    outer loop
      vertex   1.268571e+01 7.000000e+00 9.408831e+00
      vertex   1.275000e+01 7.000000e+00 1.000000e+01
      vertex   2.000000e+01 7.000000e+00 0.000000e+00
    endloop
  endfacet
  facet normal 0.000000e+00 1.000000e+00 0.000000e+00
    outer loop
      vertex   2.000000e+01 7.000000e+00 0.000000e+00
      vertex   1.275000e+01 7.000000e+00 1.000000e+01
      vertex   1.268571e+01 7.000000e+00 1.059117e+01
    endloop
  endfacet
  facet normal 0.000000e+00 1.000000e+00 0.000000e+00
    outer loop
      vertex   7.266121e+00 7.000000e+00 9.702673e+00
      vertex   7.393954e+00 7.000000e+00 9.121921e+00
      vertex   8.572528e-16 7.000000e+00 0.000000e+00
    endloop
  endfacet
  facet normal 0.000000e+00 1.000000e+00 0.000000e+00
    outer loop
      vertex   8.572528e-16 7.000000e+00 0.000000e+00
      vertex   7.393954e+00 7.000000e+00 9.121921e+00
      vertex   7.643643e+00 7.000000e+00 8.582227e+00
    endloop
  endfacet
  facet normal 0.000000e+00 1.000000e+00 0.000000e+00
    outer loop
      vertex   8.572528e-16 7.000000e+00 0.000000e+00
      vertex   7.643643e+00 7.000000e+00 8.582227e+00
      vertex   8.003512e+00 7.000000e+00 8.108826e+00
    endloop
  endfacet
  facet normal 0.000000e+00 1.000000e+00 0.000000e+00
    outer loop
      vertex   8.003512e+00 7.000000e+00 8.108826e+00
      vertex   8.456736e+00 7.000000e+00 7.723855e+00
      vertex   8.572528e-16 7.000000e+00 0.000000e+00
    endloop
  endfacet
  facet normal 0.000000e+00 1.000000e+00 0.000000e+00
    outer loop
      vertex   8.572528e-16 7.000000e+00 0.000000e+00
      vertex   8.456736e+00 7.000000e+00 7.723855e+00
      vertex   8.982120e+00 7.000000e+00 7.445314e+00
    endloop
  endfacet
  facet normal 0.000000e+00 1.000000e+00 0.000000e+00
    outer loop
      vertex   8.572528e-16 7.000000e+00 0.000000e+00
      vertex   8.982120e+00 7.000000e+00 7.445314e+00
      vertex   9.555100e+00 7.000000e+00 7.286227e+00
    endloop
  endfacet
  facet normal 0.000000e+00 1.000000e+00 0.000000e+00
    outer loop
      vertex   9.555100e+00 7.000000e+00 7.286227e+00
      vertex   1.014888e+01 7.000000e+00 7.254033e+00
      vertex   8.572528e-16 7.000000e+00 0.000000e+00
    endloop
  endfacet
  facet normal 0.000000e+00 1.000000e+00 0.000000e+00
    outer loop
      vertex   8.572528e-16 7.000000e+00 0.000000e+00
      vertex   1.014888e+01 7.000000e+00 7.254033e+00
      vertex   2.000000e+01 7.000000e+00 0.000000e+00
    endloop
  endfacet
  facet normal 0.000000e+00 1.000000e+00 0.000000e+00
    outer loop
      vertex   2.000000e+01 7.000000e+00 0.000000e+00
      vertex   1.014888e+01 7.000000e+00 7.254033e+00
      vertex   1.073570e+01 7.000000e+00 7.350238e+00
    endloop
  endfacet
  facet normal 0.000000e+00 1.000000e+00 0.000000e+00
    outer loop
      vertex   2.000000e+01 7.000000e+00 0.000000e+00
      vertex   1.073570e+01 7.000000e+00 7.350238e+00
      vertex   1.128812e+01 7.000000e+00 7.570342e+00
    endloop
  endfacet
  facet normal -0.000000e+00 1.000000e+00 0.000000e+00
    outer loop
      vertex   1.128812e+01 7.000000e+00 7.570342e+00
      vertex   1.178031e+01 7.000000e+00 7.904054e+00
      vertex   2.000000e+01 7.000000e+00 0.000000e+00
    endloop
  endfacet
  facet normal 0.000000e+00 1.000000e+00 0.000000e+00
    outer loop
      vertex   2.000000e+01 7.000000e+00 0.000000e+00
      vertex   1.178031e+01 7.000000e+00 7.904054e+00
      vertex   1.218926e+01 7.000000e+00 8.335771e+00
    endloop
  endfacet
  facet normal 0.000000e+00 1.000000e+00 0.000000e+00
    outer loop
      vertex   2.000000e+01 7.000000e+00 0.000000e+00
      vertex   1.218926e+01 7.000000e+00 8.335771e+00
      vertex   1.249583e+01 7.000000e+00 8.845305e+00
    endloop
  endfacet
  facet normal -0.000000e+00 1.000000e+00 0.000000e+00
    outer loop
      vertex   1.249583e+01 7.000000e+00 8.845305e+00
      vertex   1.268571e+01 7.000000e+00 9.408831e+00
      vertex   2.000000e+01 7.000000e+00 0.000000e+00
    endloop
  endfacet
  facet normal 1.000000e+00 0.000000e+00 0.000000e+00
    outer loop
      vertex   2.000000e+01 3.000000e+00 0.000000e+00
      vertex   2.000000e+01 7.000000e+00 0.000000e+00
      vertex   2.000000e+01 3.000000e+00 4.000000e+01
    endloop
  endfacet
  facet normal 1.000000e+00 -0.000000e+00 0.000000e+00
    outer loop
      vertex   2.000000e+01 3.000000e+00 4.000000e+01
      vertex   2.000000e+01 7.000000e+00 0.000000e+00
      vertex   2.000000e+01 7.000000e+00 4.000000e+01
    endloop
  endfacet
  facet normal -6.106227e-17 1.000000e+00 0.000000e+00
    outer loop
      vertex   1.000000e+02 3.000000e+00 0.000000e+00
      vertex   2.000000e+01 3.000000e+00 0.000000e+00
      vertex   1.000000e+02 3.000000e+00 4.000000e+01
    endloop
  endfacet
  facet normal -6.106227e-17 1.000000e+00 0.000000e+00
    outer loop
      vertex   1.000000e+02 3.000000e+00 4.000000e+01
      vertex   2.000000e+01 3.000000e+00 0.000000e+00
      vertex   2.000000e+01 3.000000e+00 4.000000e+01
    endloop
  endfacet
  facet normal 1.000000e+00 0.000000e+00 0.000000e+00
    outer loop
      vertex   1.000000e+02 0.000000e+00 0.000000e+00
      vertex   1.000000e+02 3.000000e+00 0.000000e+00
      vertex   1.000000e+02 0.000000e+00 4.000000e+01
    endloop
  endfacet
  facet normal 1.000000e+00 -0.000000e+00 0.000000e+00
    outer loop
      vertex   1.000000e+02 0.000000e+00 4.000000e+01
      vertex   1.000000e+02 3.000000e+00 0.000000e+00
      vertex   1.000000e+02 3.000000e+00 4.000000e+01
    endloop
  endfacet
  facet normal 0.000000e+00 -1.000000e+00 0.000000e+00
    outer loop
      vertex   1.420000e+01 0.000000e+00 3.242487e+01
      vertex   1.000000e+02 0.000000e+00 4.000000e+01
      vertex   1.000000e+01 0.000000e+00 3.484974e+01
    endloop
  endfacet
  facet normal 0.000000e+00 -1.000000e+00 0.000000e+00
    outer loop
      vertex   1.000000e+01 0.000000e+00 3.484974e+01
      vertex   1.000000e+02 0.000000e+00 4.000000e+01
      vertex   0.000000e+00 0.000000e+00 4.000000e+01
    endloop
  endfacet
  facet normal -0.000000e+00 -1.000000e+00 0.000000e+00
    outer loop
      vertex   1.000000e+01 0.000000e+00 3.484974e+01
      vertex   0.000000e+00 0.000000e+00 4.000000e+01
      vertex   5.800000e+00 0.000000e+00 3.242487e+01
    endloop
  endfacet
  facet normal -0.000000e+00 -1.000000e+00 0.000000e+00
    outer loop
      vertex   5.800000e+00 0.000000e+00 3.242487e+01
      vertex   0.000000e+00 0.000000e+00 4.000000e+01
      vertex   5.800000e+00 0.000000e+00 2.757513e+01
    endloop
  endfacet
  facet normal -0.000000e+00 -1.000000e+00 0.000000e+00
    outer loop
      vertex   5.800000e+00 0.000000e+00 2.757513e+01
      vertex   0.000000e+00 0.000000e+00 4.000000e+01
      vertex   5.800000e+00 0.000000e+00 1.242487e+01
    endloop
  endfacet
  facet normal 0.000000e+00 -1.000000e+00 -0.000000e+00
    outer loop
      vertex   5.800000e+00 0.000000e+00 2.757513e+01
      vertex   5.800000e+00 0.000000e+00 1.242487e+01
      vertex   1.000000e+01 0.000000e+00 1.484974e+01
    endloop
  endfacet
  facet normal 0.000000e+00 -1.000000e+00 -0.000000e+00
    outer loop
      vertex   1.420000e+01 0.000000e+00 3.242487e+01
      vertex   1.420000e+01 0.000000e+00 2.757513e+01
      vertex   1.000000e+02 0.000000e+00 4.000000e+01
    endloop
  endfacet
  facet normal 0.000000e+00 -1.000000e+00 -0.000000e+00
    outer loop
      vertex   1.000000e+02 0.000000e+00 4.000000e+01
      vertex   1.420000e+01 0.000000e+00 2.757513e+01
      vertex   1.000000e+02 0.000000e+00 0.000000e+00
    endloop
  endfacet
  facet normal 0.000000e+00 -1.000000e+00 0.000000e+00
    outer loop
      vertex   1.000000e+02 0.000000e+00 0.000000e+00
      vertex   1.420000e+01 0.000000e+00 2.757513e+01
      vertex   1.420000e+01 0.000000e+00 1.242487e+01
    endloop
  endfacet
  facet normal 0.000000e+00 -1.000000e+00 0.000000e+00
    outer loop
      vertex   1.000000e+02 0.000000e+00 0.000000e+00
      vertex   1.420000e+01 0.000000e+00 1.242487e+01
      vertex   1.420000e+01 0.000000e+00 7.575129e+00
    endloop
  endfacet
  facet normal 0.000000e+00 -1.000000e+00 0.000000e+00
    outer loop
      vertex   1.420000e+01 0.000000e+00 2.757513e+01
      vertex   1.000000e+01 0.000000e+00 2.515026e+01
      vertex   1.420000e+01 0.000000e+00 1.242487e+01
    endloop
  endfacet
  facet normal 0.000000e+00 -1.000000e+00 0.000000e+00
    outer loop
      vertex   1.420000e+01 0.000000e+00 1.242487e+01
      vertex   1.000000e+01 0.000000e+00 2.515026e+01
      vertex   1.000000e+01 0.000000e+00 1.484974e+01
    endloop
  endfacet
  facet normal 0.000000e+00 -1.000000e+00 0.000000e+00
    outer loop
      vertex   1.000000e+01 0.000000e+00 1.484974e+01
      vertex   1.000000e+01 0.000000e+00 2.515026e+01
      vertex   5.800000e+00 0.000000e+00 2.757513e+01
    endloop
  endfacet
  facet normal 0.000000e+00 -1.000000e+00 -0.000000e+00
    outer loop
      vertex   1.420000e+01 0.000000e+00 7.575129e+00
      vertex   1.000000e+01 0.000000e+00 5.150258e+00
      vertex   1.000000e+02 0.000000e+00 0.000000e+00
    endloop
  endfacet
  facet normal 0.000000e+00 -1.000000e+00 0.000000e+00
    outer loop
      vertex   1.000000e+02 0.000000e+00 0.000000e+00
      vertex   1.000000e+01 0.000000e+00 5.150258e+00
      vertex   0.000000e+00 0.000000e+00 0.000000e+00
    endloop
  endfacet
  facet normal 0.000000e+00 -1.000000e+00 0.000000e+00
    outer loop
      vertex   0.000000e+00 0.000000e+00 0.000000e+00
      vertex   1.000000e+01 0.000000e+00 5.150258e+00
      vertex   5.800000e+00 0.000000e+00 7.575129e+00
    endloop
  endfacet
  facet normal 0.000000e+00 -1.000000e+00 0.000000e+00
    outer loop
      vertex   0.000000e+00 0.000000e+00 0.000000e+00
      vertex   5.800000e+00 0.000000e+00 7.575129e+00
      vertex   5.800000e+00 0.000000e+00 1.242487e+01
    endloop
  endfacet
  facet normal 0.000000e+00 -1.000000e+00 0.000000e+00
    outer loop
      vertex   0.000000e+00 0.000000e+00 4.000000e+01
      vertex   0.000000e+00 0.000000e+00 0.000000e+00
      vertex   5.800000e+00 0.000000e+00 1.242487e+01
    endloop
  endfacet
  facet normal 0.000000e+00 0.000000e+00 1.000000e+00
    outer loop
      vertex   8.572528e-16 7.000000e+00 4.000000e+01
      vertex   0.000000e+00 0.000000e+00 4.000000e+01
      vertex   2.000000e+01 3.000000e+00 4.000000e+01
    endloop
  endfacet
  facet normal 0.000000e+00 0.000000e+00 1.000000e+00
    outer loop
      vertex   2.000000e+01 3.000000e+00 4.000000e+01
      vertex   0.000000e+00 0.000000e+00 4.000000e+01
      vertex   1.000000e+02 0.000000e+00 4.000000e+01
    endloop
  endfacet
  facet normal -0.000000e+00 0.000000e+00 1.000000e+00
    outer loop
      vertex   2.000000e+01 3.000000e+00 4.000000e+01
      vertex   1.000000e+02 0.000000e+00 4.000000e+01
      vertex   1.000000e+02 3.000000e+00 4.000000e+01
    endloop
  endfacet
  facet normal 0.000000e+00 -0.000000e+00 1.000000e+00
    outer loop
      vertex   2.000000e+01 3.000000e+00 4.000000e+01
      vertex   2.000000e+01 7.000000e+00 4.000000e+01
      vertex   8.572528e-16 7.000000e+00 4.000000e+01
    endloop
  endfacet
  facet normal 0.000000e+00 -0.000000e+00 -1.000000e+00
    outer loop
      vertex   1.000000e+02 3.000000e+00 0.000000e+00
      vertex   1.000000e+02 0.000000e+00 0.000000e+00
      vertex   2.000000e+01 3.000000e+00 0.000000e+00
    endloop
  endfacet
  facet normal 0.000000e+00 -0.000000e+00 -1.000000e+00
    outer loop
      vertex   2.000000e+01 3.000000e+00 0.000000e+00
      vertex   1.000000e+02 0.000000e+00 0.000000e+00
      vertex   0.000000e+00 0.000000e+00 0.000000e+00
    endloop
  endfacet
  facet normal -0.000000e+00 0.000000e+00 -1.000000e+00
    outer loop
      vertex   2.000000e+01 3.000000e+00 0.000000e+00
      vertex   0.000000e+00 0.000000e+00 0.000000e+00
      vertex   8.572528e-16 7.000000e+00 0.000000e+00
    endloop
  endfacet
  facet normal 0.000000e+00 0.000000e+00 -1.000000e+00
    outer loop
      vertex   8.572528e-16 7.000000e+00 0.000000e+00
      vertex   2.000000e+01 7.000000e+00 0.000000e+00
      vertex   2.000000e+01 3.000000e+00 0.000000e+00
    endloop
  endfacet
endsolid
